<svg width="100" height="100" viewBox="0 0 100 100" fill="none" xmlns="http://www.w3.org/2000/svg">
<path d="M22.6471 50.0971C24.4377 41.1443 25.333 36.6679 28.2912 33.7848C28.838 33.2519 29.4295 32.767 30.0592 32.3354C33.4665 30 38.0315 30 47.1617 30H52.8381C61.9682 30 66.5333 30 69.9406 32.3354C70.5703 32.767 71.1618 33.2519 71.7086 33.7848C74.6668 36.6679 75.5621 41.1443 77.3526 50.0971C79.9233 62.9504 81.2086 69.3771 78.2498 73.9311C77.714 74.7557 77.0887 75.5184 76.3852 76.2055C72.5 80 65.946 80 52.8381 80H47.1617C34.0538 80 27.4998 80 23.6146 76.2055C22.9111 75.5184 22.2858 74.7557 21.75 73.9311C18.7911 69.3771 20.0765 62.9504 22.6471 50.0971Z" stroke="#212529" stroke-width="1.5"/>
<circle opacity="0.5" cx="60.0001" cy="39.9993" r="3.33333" fill="#212529"/>
<circle opacity="0.5" cx="40.0001" cy="39.9993" r="3.33333" fill="#212529"/>
<path opacity="0.5" d="M40 29.9993V26.666C40 21.1432 44.4772 16.666 50 16.666C55.5228 16.666 60 21.1432 60 26.666V29.9993" stroke="#212529" stroke-width="1.5" stroke-linecap="round"/>
</svg>
