<svg width="45" height="33" viewBox="0 0 45 33" fill="none" xmlns="http://www.w3.org/2000/svg">
<path d="M29.8087 24.0083C30.0973 24.3052 30.5721 24.3118 30.8693 24.0229C31.1664 23.7341 31.1733 23.2593 30.8846 22.9624L29.8087 24.0083ZM23.0817 16.012L22.5472 15.4863C22.2613 15.7771 22.2598 16.2428 22.5438 16.5349L23.0817 16.012ZM30.9293 9.10031C31.2198 8.80485 31.216 8.33 30.9208 8.0397C30.6255 7.74939 30.1507 7.75358 29.8601 8.04904L30.9293 9.10031ZM28.463 20.4712C28.1744 20.1743 27.6996 20.1678 27.4025 20.4566C27.1053 20.7455 27.0985 21.2203 27.3871 21.5172L28.463 20.4712ZM24.36 18.4033C24.6486 18.7002 25.1235 18.7067 25.4206 18.4179C25.7177 18.1291 25.7246 17.6542 25.4359 17.3573L24.36 18.4033ZM23.6163 16.5376L30.9293 9.10031L29.8601 8.04904L22.5472 15.4863L23.6163 16.5376ZM30.8846 22.9624L28.463 20.4712L27.3871 21.5172L29.8087 24.0083L30.8846 22.9624ZM25.4359 17.3573L23.6197 15.489L22.5438 16.5349L24.36 18.4033L25.4359 17.3573Z" fill="white"/>
<path d="M16.3292 8.04161C16.0397 7.74543 15.5648 7.74007 15.2687 8.02964C14.9725 8.31921 14.9671 8.79405 15.2567 9.09023L16.3292 8.04161ZM23.082 16.0213L23.6182 16.5456C23.9032 16.2541 23.9032 15.7884 23.6182 15.497L23.082 16.0213ZM15.2567 22.9523C14.9671 23.2485 14.9725 23.7234 15.2687 24.0129C15.5648 24.3025 16.0397 24.2971 16.3292 24.001L15.2567 22.9523ZM17.6863 11.5754C17.9759 11.8715 18.4508 11.8769 18.7469 11.5873C19.0431 11.2978 19.0485 10.8229 18.7589 10.5267L17.6863 11.5754ZM21.796 13.6331C21.5064 13.337 21.0316 13.3316 20.7354 13.6212C20.4392 13.9107 20.4339 14.3856 20.7234 14.6818L21.796 13.6331ZM22.5457 15.497L15.2567 22.9523L16.3292 24.001L23.6182 16.5456L22.5457 15.497ZM15.2567 9.09023L17.6863 11.5754L18.7589 10.5267L16.3292 8.04161L15.2567 9.09023ZM20.7234 14.6818L22.5457 16.5456L23.6182 15.497L21.796 13.6331L20.7234 14.6818Z" fill="white"/>
</svg>
